<?xml version="1.0" encoding="UTF-8" standalone="no"?>
<svg
   viewBox="0 0 512 512"
   version="1.1"
   id="svg10"
   xmlns:xlink="http://www.w3.org/1999/xlink"
   xmlns="http://www.w3.org/2000/svg"
   xmlns:svg="http://www.w3.org/2000/svg">
  <defs
     id="defs9">
    <linearGradient
       id="b"
       x1="99.5"
       x2="232.6"
       y1="30.7"
       y2="261.4"
       gradientUnits="userSpaceOnUse">
      <stop
         offset="0"
         stop-color="#f3f7fe"
         id="stop1" />
      <stop
         offset=".5"
         stop-color="#f3f7fe"
         id="stop2" />
      <stop
         offset="1"
         stop-color="#deeafb"
         id="stop3" />
    </linearGradient>
    <linearGradient
       id="a"
       x1="1381.3"
       x2="1399.5"
       y1="-1144.7"
       y2="-1097.4"
       gradientTransform="rotate(-9 8002.567 8233.063)"
       gradientUnits="userSpaceOnUse">
      <stop
         offset="0"
         stop-color="#0b65ed"
         id="stop4" />
      <stop
         offset=".5"
         stop-color="#0a5ad4"
         id="stop5" />
      <stop
         offset="1"
         stop-color="#0950bc"
         id="stop6" />
    </linearGradient>
    <linearGradient
       xlink:href="#a"
       id="e"
       x1="1436.7"
       x2="1454.9"
       y1="-1137"
       y2="-1089.7"
       gradientTransform="rotate(-9 8009.537 8233.037)" />
    <linearGradient
       xlink:href="#a"
       id="h"
       x1="1492.1"
       x2="1510.3"
       y1="-1129.3"
       y2="-1082.1"
       gradientTransform="rotate(-9 8016.566 8233.078)" />
    <symbol
       id="k"
       viewBox="0 0 350 222">
      <path
         fill="url(#b)"
         stroke="#e6effc"
         stroke-miterlimit="10"
         stroke-width="6"
         d="m291 107-2.5.1A83.9 83.9 0 00135.6 43 56 56 0 0051 91a56.6 56.6 0 00.8 9A60 60 0 0063 219l4-.2v.2h224a56 56 0 000-112Z"
         id="path6" />
    </symbol>
    <symbol
       id="l"
       overflow="visible"
       viewBox="0 0 129 57">
      <path
         fill="url(#a)"
         stroke="#0a5ad4"
         stroke-miterlimit="10"
         d="M8.5 56.5a8 8 0 01-8-8v-40a8 8 0 0116 0v40a8 8 0 01-8 8Z"
         opacity="0"
         id="path7">
        <animateTransform
           id="c"
           additive="sum"
           attributeName="transform"
           begin="0s; c.end+.33s"
           dur=".67s"
           type="translate"
           values="0 -60; 0 60" />
        <animate
           id="d"
           attributeName="opacity"
           begin="0s; d.end+.33s"
           dur=".67s"
           keyTimes="0; .25; 1"
           values="0; 1; 0" />
      </path>
      <path
         fill="url(#e)"
         stroke="#0a5ad4"
         stroke-miterlimit="10"
         d="M64.5 56.5a8 8 0 01-8-8v-40a8 8 0 0116 0v40a8 8 0 01-8 8Z"
         opacity="0"
         id="path8">
        <animateTransform
           id="f"
           additive="sum"
           attributeName="transform"
           begin=".33s; f.end+.33s"
           dur=".67s"
           type="translate"
           values="0 -60; 0 60" />
        <animate
           id="g"
           attributeName="opacity"
           begin=".33s; g.end+.33s"
           dur=".67s"
           keyTimes="0; .25; 1"
           values="0; 1; 0" />
      </path>
      <path
         fill="url(#h)"
         stroke="#0a5ad4"
         stroke-miterlimit="10"
         d="M120.5 56.5a8 8 0 01-8-8v-40a8 8 0 0116 0v40a8 8 0 01-8 8Z"
         opacity="0"
         id="path9">
        <animateTransform
           id="i"
           additive="sum"
           attributeName="transform"
           begin="-.33s; i.end+.33s"
           dur=".67s"
           type="translate"
           values="0 -60; 0 60" />
        <animate
           id="j"
           attributeName="opacity"
           begin="-.33s; j.end+.33s"
           dur=".67s"
           keyTimes="0; .25; 1"
           values="0; 1; 0" />
      </path>
    </symbol>
    <linearGradient
       xlink:href="#b"
       id="linearGradient10"
       gradientUnits="userSpaceOnUse"
       x1="99.5"
       y1="30.7"
       x2="232.6"
       y2="261.4" />
    <linearGradient
       xlink:href="#a"
       id="linearGradient13"
       gradientUnits="userSpaceOnUse"
       gradientTransform="rotate(-9,8002.567,8233.063)"
       x1="1381.3"
       y1="-1144.7"
       x2="1399.5"
       y2="-1097.4" />
    <linearGradient
       xlink:href="#a"
       id="linearGradient14"
       gradientTransform="rotate(-9,8009.537,8233.037)"
       x1="1436.7"
       y1="-1137"
       x2="1454.9"
       y2="-1089.7" />
    <linearGradient
       xlink:href="#a"
       id="linearGradient15"
       gradientTransform="rotate(-9,8016.566,8233.078)"
       x1="1492.1"
       y1="-1129.3"
       x2="1510.3"
       y2="-1082.1" />
  </defs>
  <g
     id="use9"
     transform="translate(81,145)">
    <path
       fill="url(#b)"
       stroke="#e6effc"
       stroke-miterlimit="10"
       stroke-width="6"
       d="m 291,107 -2.5,0.1 A 83.9,83.9 0 0 0 135.6,43 56,56 0 0 0 51,91 56.6,56.6 0 0 0 51.8,100 60,60 0 0 0 63,219 l 4,-0.2 v 0.2 h 224 a 56,56 0 0 0 0,-112 z"
       id="path10"
       style="fill:url(#linearGradient10)" />
  </g>
  <g
     id="use10"
     transform="translate(191.5,343.5)">
    <path
       fill="url(#a)"
       stroke="#0a5ad4"
       stroke-miterlimit="10"
       d="m 8.5,56.5 a 8,8 0 0 1 -8,-8 v -40 a 8,8 0 0 1 16,0 v 40 a 8,8 0 0 1 -8,8 z"
       opacity="0"
       id="path11"
       style="fill:url(#linearGradient13)">
      <animateTransform
         id="c"
         additive="sum"
         attributeName="transform"
         begin="0s; c.end+.33s"
         dur=".67s"
         type="translate"
         values="0 -60; 0 60" />
      <animate
         id="d"
         attributeName="opacity"
         begin="0s; d.end+.33s"
         dur=".67s"
         keyTimes="0; .25; 1"
         values="0; 1; 0" />
    </path>
    <path
       fill="url(#e)"
       stroke="#0a5ad4"
       stroke-miterlimit="10"
       d="m 64.5,56.5 a 8,8 0 0 1 -8,-8 v -40 a 8,8 0 0 1 16,0 v 40 a 8,8 0 0 1 -8,8 z"
       opacity="0"
       id="path12"
       style="fill:url(#linearGradient14)">
      <animateTransform
         id="f"
         additive="sum"
         attributeName="transform"
         begin=".33s; f.end+.33s"
         dur=".67s"
         type="translate"
         values="0 -60; 0 60" />
      <animate
         id="g"
         attributeName="opacity"
         begin=".33s; g.end+.33s"
         dur=".67s"
         keyTimes="0; .25; 1"
         values="0; 1; 0" />
    </path>
    <path
       fill="url(#h)"
       stroke="#0a5ad4"
       stroke-miterlimit="10"
       d="m 120.5,56.5 a 8,8 0 0 1 -8,-8 v -40 a 8,8 0 0 1 16,0 v 40 a 8,8 0 0 1 -8,8 z"
       opacity="0"
       id="path13"
       style="fill:url(#linearGradient15)">
      <animateTransform
         id="i"
         additive="sum"
         attributeName="transform"
         begin="-.33s; i.end+.33s"
         dur=".67s"
         type="translate"
         values="0 -60; 0 60" />
      <animate
         id="j"
         attributeName="opacity"
         begin="-.33s; j.end+.33s"
         dur=".67s"
         keyTimes="0; .25; 1"
         values="0; 1; 0" />
    </path>
  </g>
</svg>
